<svg class="svg-icon" style="width: 1em; height: 1em;vertical-align: middle;fill: currentColor;overflow: hidden;" viewBox="0 0 1024 1024" version="1.1" xmlns="http://www.w3.org/2000/svg"><path d="M512 0c282.76736 0 512 229.23264 512 512s-229.23264 512-512 512S0 794.76736 0 512 229.23264 0 512 0z" fill="#EFC75E" /><path d="M798.72 409.6L522.24 634.88 215.04 501.76 10.63936 616.22272C58.78784 849.00864 264.94976 1024 512 1024c282.76736 0 512-229.23264 512-512 0-54.82496-8.71424-107.59168-24.65792-157.11232L798.72 409.6z" fill="#3DB39E" /><path d="M204.8 921.61024c6.7072 5.02784 13.52704 9.92256 20.48 14.63296V87.76704c-6.95296 4.7104-13.7728 9.59488-20.48 14.63296v819.21024z m593.92 14.63296c6.95296-4.7104 13.78304-9.60512 20.48-14.63296V102.4a508.416 508.416 0 0 0-20.48-14.63296V936.2432zM522.24 0.256L512 0l-10.24 0.256v1023.47776l10.24 0.256 10.24-0.256V0.256z" fill="#E1BB58" /><path d="M798.72 409.6L522.24 634.88 215.04 501.76 10.63936 616.22272C58.78784 849.00864 264.94976 1024 512 1024c282.76736 0 512-229.23264 512-512 0-54.82496-8.71424-107.59168-24.65792-157.11232L798.72 409.6z" fill="#3DB39E" /><path d="M798.72 409.6v526.6432l1.62816-1.15712a530.2784 530.2784 0 0 0 18.80064-13.43488l0.0512-0.04096V404.0192L798.72 409.6zM501.76 1023.744l10.24 0.256 10.24-0.256V634.88l-20.48-8.86784v397.73184zM204.8 507.4944v414.09536l2.24256 1.61792a516.096 516.096 0 0 0 16.384 11.70432l1.85344 1.2288V506.20416L215.04 501.76l-10.24 5.7344z" fill="#39A895" /><path d="M512 706.56a71.68 71.68 0 0 1-59.86304-111.06304A71.5776 71.5776 0 0 0 419.84 655.36a71.68 71.68 0 0 0 71.68 71.68 71.5776 71.5776 0 0 0 59.86304-32.29696A71.35232 71.35232 0 0 1 512 706.56zM215.04 573.44a71.68 71.68 0 0 1-59.86304-111.06304A71.5776 71.5776 0 0 0 122.88 522.24a71.68 71.68 0 0 0 71.68 71.68 71.5776 71.5776 0 0 0 59.86304-32.29696A71.3728 71.3728 0 0 1 215.04 573.44z m593.92-92.16a71.68 71.68 0 0 1-59.86304-111.06304A71.5776 71.5776 0 0 0 716.8 430.08a71.68 71.68 0 0 0 71.68 71.68 71.5776 71.5776 0 0 0 59.86304-32.29696A71.2704 71.2704 0 0 1 808.96 481.28z" fill="#D8B355" /><path d="M152.5248 536.77056l-23.98208 13.43488A71.70048 71.70048 0 0 0 194.56 593.92a71.5776 71.5776 0 0 0 59.86304-32.29696 71.59808 71.59808 0 0 1-101.89824-24.85248z m398.85824 157.97248A71.68 71.68 0 0 1 440.32 634.88c0-11.59168 2.85696-22.45632 7.75168-32.14336l-3.44064-1.49504A71.39328 71.39328 0 0 0 419.84 655.36a71.68 71.68 0 0 0 71.68 71.68 71.5776 71.5776 0 0 0 59.86304-32.29696z m198.144-245.05344l-22.02624 17.94048a71.5776 71.5776 0 0 0 120.84224 1.83296 71.61856 71.61856 0 0 1-98.816-19.77344z" fill="#37A18E" /><path d="M532.92032 651.64288l270.47936-216.576-25.6-31.96928-263.168 210.71872-291.76832-120.7296-5.4272 13.11744-12.15488-22.44608L6.18496 591.59552c2.22208 14.21312 5.09952 28.20096 8.45824 41.99424l193.4336-104.76544-0.8704 2.0992 296.96 122.88 10.3936-25.09824 18.36032 22.9376z m459.29472-317.4912L793.1904 389.87776l11.03872 39.44448 200.5504-56.14592a496.5376 496.5376 0 0 0-12.56448-39.02464z" fill="#F2F1EF" /><path d="M215.04 430.08a71.68 71.68 0 1 0 0 143.36 71.68 71.68 0 0 0 0-143.36z m296.96 133.12a71.68 71.68 0 1 0 0 143.36 71.68 71.68 0 0 0 0-143.36z m296.96-225.28a71.68 71.68 0 1 0 0 143.36 71.68 71.68 0 0 0 0-143.36z" fill="#FFFFFF" /><path d="M215.04 471.04a30.72 30.72 0 1 0 0 61.44 30.72 30.72 0 0 0 0-61.44z m296.96 133.12a30.72 30.72 0 1 0 0 61.44 30.72 30.72 0 0 0 0-61.44z m296.96-225.28a30.72 30.72 0 1 0 0 61.44 30.72 30.72 0 0 0 0-61.44z" fill="#3DB39E" /><path d="M123.17696 528.22016a71.31136 71.31136 0 0 0 15.14496 38.37952l26.07104-14.12096a71.44448 71.44448 0 0 1-19.5072-36.01408l-21.7088 11.75552z m304.83456 94.07488l12.84096 5.31456a71.29088 71.29088 0 0 1 11.28448-32.1024 72.06912 72.06912 0 0 0-24.12544 26.78784z m313.06752-189.80864l-21.49376 17.21344a71.61856 71.61856 0 0 0 22.20032 34.69312l22.99904-18.41152a71.8336 71.8336 0 0 1-23.7056-33.49504z" fill="#D9D8D7" /><path d="M204.8 572.69248v20.44928a71.39328 71.39328 0 0 0 20.48-6.27712v-14.1824c-3.34848 0.48128-6.7584 0.75776-10.24 0.75776s-6.89152-0.26624-10.24-0.74752z m296.96 153.56928a71.39328 71.39328 0 0 0 20.48-6.27712v-14.1824c-3.34848 0.48128-6.7584 0.75776-10.24 0.75776-3.4816 0-6.88128-0.32768-10.24-0.80896v20.51072z m296.96-225.29024a70.7584 70.7584 0 0 0 20.48-6.27712v-14.1824c-3.34848 0.49152-6.7584 0.768-10.24 0.768s-6.89152-0.3072-10.24-0.78848v20.48z" fill="#339786" /></svg>